<svg width="227" height="227" viewBox="0 0 227 227" fill="none" xmlns="http://www.w3.org/2000/svg">
<g id="star-color">
<path id="fillStar" fill-rule="evenodd" clip-rule="evenodd" d="M76.36 74.6906L102.523 14.7586C104.224 10.9643 107.622 7.09375 113.387 7.09375C118.043 7.09375 121.365 8.83133 124.251 14.7586C130.637 27.8699 143.911 58.994 150.414 74.6906C150.414 74.6906 210.944 80.7894 216.265 81.1356C221.586 81.4819 225.799 83.9056 226.464 91.5231C227.129 99.1405 224.025 100.368 224.025 100.368L173.252 145.878C173.252 145.878 185.668 199.116 187.663 208.35C189.659 217.583 183.894 221.738 183.894 221.738C183.894 221.738 177.464 227.74 169.926 222.892C162.387 218.045 113.387 188.692 113.387 188.692C113.387 188.692 66.3826 216.89 57.5138 222.43C48.645 227.97 42.6586 221.738 42.6586 221.738C42.6586 221.738 37.3373 217.583 39.1111 208.811C40.8848 200.04 53.7447 145.878 53.7447 145.878C53.7447 145.878 7.40506 104.93 3.4141 101.467C-0.576857 98.0047 0.0883745 93.1389 0.310103 91.5231C0.531831 89.9072 1.99619 81.7579 10.0656 81.1356C18.135 80.5133 76.36 74.6906 76.36 74.6906Z" fill="#FFC107"/>
</g>
</svg>
