<svg width="227" height="227" viewBox="0 0 227 227" fill="none" xmlns="http://www.w3.org/2000/svg">
<path fill-rule="evenodd" clip-rule="evenodd" d="M76.359 72.4738L102.522 12.5418C104.223 8.74747 107.622 4.87695 113.386 4.87695C118.042 4.87695 121.364 6.61454 124.25 12.5418C130.636 25.6531 143.91 56.7772 150.413 72.4738C150.413 72.4738 210.943 78.5726 216.264 78.9188C221.585 79.2651 225.798 81.6888 226.463 89.3063C227.128 96.9237 224.024 98.1511 224.024 98.1511L173.251 143.662C173.251 143.662 185.667 196.9 187.662 206.133C189.658 215.366 183.893 219.521 183.893 219.521C183.893 219.521 177.463 225.523 169.925 220.675C162.386 215.828 113.386 186.475 113.386 186.475C113.386 186.475 66.3816 214.674 57.5128 220.214C48.6441 225.754 42.6576 219.521 42.6576 219.521C42.6576 219.521 37.3363 215.366 39.1101 206.595C40.8838 197.823 53.7437 143.662 53.7437 143.662C53.7437 143.662 7.40408 102.713 3.41312 99.2504C-0.577834 95.7879 0.087398 90.9221 0.309126 89.3063C0.530855 87.6904 1.99521 79.5411 10.0646 78.9188C18.134 78.2965 76.359 72.4738 76.359 72.4738ZM103.681 24.9684L80.4749 78.065C80.4749 78.065 28.8297 83.2236 21.6722 83.7749C14.5146 84.3262 13.2158 91.5461 13.0191 92.9776C12.8224 94.4092 12.2324 98.72 15.7723 101.788C19.3123 104.855 60.4152 141.134 60.4152 141.134C60.4152 141.134 49.0086 189.118 47.4353 196.889C45.862 204.66 50.5819 208.341 50.5819 208.341C50.5819 208.341 55.8919 213.863 63.7584 208.955C71.625 204.046 113.318 179.064 113.318 179.064C113.318 179.064 156.781 205.069 163.467 209.364C170.154 213.658 175.857 208.341 175.857 208.341C175.857 208.341 180.97 204.66 179.2 196.48C177.43 188.3 166.417 141.134 166.417 141.134L211.453 100.814C211.453 100.814 214.206 99.7263 213.616 92.9776C213.026 86.229 209.29 84.0817 204.57 83.7749C199.85 83.4682 146.161 78.065 146.161 78.065C140.392 64.1586 128.618 36.5843 122.954 24.9684C120.394 19.7172 117.448 18.1777 113.318 18.1777C108.205 18.1777 105.19 21.6068 103.681 24.9684Z" fill="#333333"/>
</svg>
